<?xml version="1.0" encoding="UTF-8"?>
<svg width="80px" height="27px" viewBox="0 0 80 27" version="1.1" xmlns="http://www.w3.org/2000/svg" xmlns:xlink="http://www.w3.org/1999/xlink">
    <!-- Generator: Sketch 58 (84663) - https://sketch.com -->
    <title>Logo</title>
    <desc>Created with Sketch.</desc>
    <defs>
        <polygon id="path-1" points="0 0.195689414 0 26.024419 27.2051283 26.024419 27.2051283 0.195689414 0 0.195689414"></polygon>
        <polygon id="path-3" points="14.0516035 0.13749317 0.095772904 0.13749317 0.095772904 26.2985413 14.0516035 26.2985413"></polygon>
    </defs>
    <g id="Documentation" stroke="none" stroke-width="1" fill="none" fill-rule="evenodd">
        <g id="Navigation-Redesign-Specifications-(Dotcom)" transform="translate(-114.000000, -365.000000)">
            <g id="Group-5" transform="translate(60.000000, 316.000000)">
                <g id="Group-4">
                    <g id="Desktop/Navigation/Global-Nav/" transform="translate(30.000000, 30.000000)">
                        <g id="Nav-Top">
                            <g id="Brand-Element/0-DSW-Logo" transform="translate(24.000000, 19.000000)">
                                <g id="DSW_Logo">
                                    <g id="Group-3" transform="translate(0.000000, 0.409091)">
                                        <mask id="mask-2" fill="white">
                                            <use xlink:href="#path-1"></use>
                                        </mask>
                                        <g id="Clip-2"></g>
                                        <path d="M7.51401605,13.698259 C7.51401605,17.279148 7.54496155,19.8745641 7.58282907,20.5203185 C7.61581046,21.3656885 7.67953377,22.7121639 7.94684591,23.0857716 C8.37702912,23.7288396 9.67857255,24.4363798 12.3038506,24.4363798 C15.6978801,24.4363798 17.9564946,23.764382 19.9537011,22.0064835 C22.082426,20.1502237 22.7467364,17.0776726 22.7467364,13.6005176 C22.7467364,9.31270838 20.9861001,6.54288693 19.5540562,5.15838949 C16.4963555,2.18709267 12.7014596,1.78166223 10.1089594,1.78166223 C9.44281668,1.78166223 8.20906833,1.88518957 7.94684591,2.02012641 C7.64858827,2.1552699 7.54496155,2.32430257 7.54496155,2.69605046 C7.51401605,3.84353021 7.51401605,6.78197104 7.51401605,9.44888506 L7.51401605,13.698259 Z M3.35551048,9.98635937 C3.35551048,4.85545319 3.35551048,3.91006874 3.28914052,2.82954081 C3.22277056,1.6802013 2.9574943,1.14252035 1.85689306,0.90488273 C1.59487422,0.838757479 1.02706496,0.804041722 0.560235759,0.804041722 C0.193572265,0.804041722 -4.07177673e-05,0.737916471 -4.07177673e-05,0.498419078 C-4.07177673e-05,0.265120928 0.228385956,0.195689414 0.728196549,0.195689414 C2.49229381,0.195689414 4.58640858,0.295910498 5.51945622,0.295910498 C6.55246597,0.295910498 8.64617356,0.195689414 10.6386975,0.195689414 C14.7949636,0.195689414 20.3529388,0.195689414 23.9800775,4.04417901 C25.6364763,5.79897786 27.2051283,8.60082872 27.2051283,12.6218639 C27.2051283,16.8761972 25.4424561,20.1132349 23.5765645,22.0372731 C22.0512769,23.6284119 18.5872128,26.024419 12.4363869,26.024419 C11.2429492,26.024419 9.87503578,25.923578 8.61278499,25.822737 C7.3489055,25.7223093 6.18824555,25.6185753 5.34925595,25.6185753 C4.98584988,25.6185753 4.25109777,25.6185753 3.45669413,25.6499848 C2.69120011,25.6499848 1.82594755,25.7223093 1.16204436,25.7223093 C0.728196549,25.7223093 0.494272976,25.6185753 0.494272976,25.3811443 C0.494272976,25.2129382 0.628438019,25.1118906 1.02706496,25.1118906 C1.53054015,25.1118906 1.92814915,25.0457653 2.22355655,24.9759205 C2.89214229,24.841397 3.05725283,24.0981078 3.1873461,23.1219338 C3.35551048,21.701894 3.35551048,19.0345667 3.35551048,15.928953 L3.35551048,9.98635937 Z" id="Fill-1" fill="#231F20" mask="url(#mask-2)"></path>
                                    </g>
                                    <g id="Group-6" transform="translate(27.614213, 0.000000)">
                                        <mask id="mask-4" fill="white">
                                            <use xlink:href="#path-3"></use>
                                        </mask>
                                        <g id="Clip-5"></g>
                                        <path d="M0.726766562,25.4366042 C0.195285181,25.2030905 0.095772904,25.0310708 0.095772904,24.3021323 C0.095772904,22.4648722 0.228387828,20.46356 0.263533847,19.9293183 C0.291528061,19.4285817 0.393492386,19.0610479 0.663217654,19.0610479 C0.964002196,19.0610479 0.999965565,19.3599372 0.999965565,19.6281817 C0.999965565,20.0578223 1.1299241,20.7644923 1.29788938,21.3330562 C2.0310517,23.8013957 3.99759412,24.7031711 6.07263965,24.7031711 C9.0757853,24.7031711 10.5437446,22.6654937 10.5437446,20.8970823 C10.5437446,19.262691 10.0427095,17.7247287 7.2702607,15.5536442 L5.73527872,14.3529794 C2.06456303,11.4838055 0.795219566,9.14785167 0.795219566,6.44170824 C0.795219566,2.77352121 3.86906594,0.13745231 8.50629718,0.13745231 C10.6781986,0.13745231 12.0746399,0.465964966 12.9483863,0.701113017 C13.2495795,0.767714464 13.4112103,0.871498313 13.4112103,1.10296898 C13.4112103,1.53546979 13.2779824,2.50588963 13.2779824,5.10824922 C13.2779824,5.84168232 13.1788788,6.11278698 12.9128316,6.11278698 C12.6827478,6.11278698 12.5809878,5.90767087 12.5809878,5.50847079 C12.5809878,5.20896858 12.4150659,4.17296878 11.7109194,3.3038812 C11.212132,2.67382334 10.2452078,1.67112427 8.07657579,1.67112427 C5.60082476,1.67112427 4.09996711,3.10673274 4.09996711,5.10824922 C4.09996711,6.64253407 4.86827545,7.81357545 7.64297198,9.9141769 L8.57781524,10.6167609 C12.6138861,13.6532556 14.0516035,15.9575431 14.0516035,19.1284666 C14.0516035,21.062973 13.3139458,23.3654218 10.9113475,24.9346417 C9.24150287,26.0025122 7.37488141,26.2985413 5.60082476,26.2985413 C3.66534163,26.2985413 2.1640753,26.0691136 0.726766562,25.4366042" id="Fill-4" fill="#231F20" mask="url(#mask-4)"></path>
                                    </g>
                                    <g id="Group-9" transform="translate(42.233503, 0.409091)" fill="#231F20">
                                        <path d="M3.18423156,3.50482427 C2.77975177,2.25609024 2.41571996,1.44564263 1.95819031,1.10778393 C1.58521523,0.869733026 0.926868482,0.802574568 0.627472137,0.802574568 C0.294335266,0.802574568 0.0963637524,0.771578357 0.0963637524,0.497158566 C0.0963637524,0.265100264 0.358767474,0.19566875 0.825646907,0.19566875 C2.55312114,0.19566875 4.37470297,0.295889833 4.67816444,0.295889833 C4.97593474,0.295889833 6.43572058,0.19566875 8.36319889,0.19566875 C8.82560668,0.19566875 9.05874152,0.295889833 9.05874152,0.497158566 C9.05874152,0.771578357 8.794915,0.802574568 8.46421721,0.802574568 C8.19591906,0.802574568 7.86522126,0.802574568 7.6294441,0.939164539 C7.32903147,1.07492795 7.26886764,1.3092593 7.26886764,1.68018063 C7.26886764,2.12136004 7.5965166,3.26925307 7.9999801,4.79034048 C8.56198343,7.01731494 11.649648,17.245858 12.2506765,19.136007 L12.3521013,19.136007 L18.7908504,1.54648364 C19.1256133,0.601305836 19.3542765,0.331845439 19.6193226,0.331845439 C19.9872163,0.331845439 20.1496179,0.835843835 20.5817406,1.9190581 L27.4918407,18.9006424 L27.5877777,18.9006424 C28.1892127,16.6393655 30.8459741,7.7267149 32.0096157,3.77717765 C32.241531,2.99917275 32.34072,2.2883263 32.34072,1.81491083 C32.34072,1.27702324 32.0392911,0.802574568 30.7431265,0.802574568 C30.4152743,0.802574568 30.1819362,0.702146843 30.1819362,0.497158566 C30.1819362,0.265100264 30.4477953,0.19566875 30.9431306,0.19566875 C32.7084105,0.19566875 34.099699,0.295889833 34.3970628,0.295889833 C34.6287748,0.295889833 36.0554299,0.19566875 37.1507774,0.19566875 C37.5184678,0.19566875 37.7520092,0.265100264 37.7520092,0.466782279 C37.7520092,0.702146843 37.5800545,0.802574568 37.2893981,0.802574568 C36.9548385,0.802574568 36.4875525,0.835843835 36.1283989,0.969334185 C35.3261467,1.27702324 34.9606921,2.62845806 34.2671821,4.55063644 C32.7368663,8.80476313 29.2512262,19.5408175 27.623754,24.6039453 C27.2580961,25.7867608 27.0946782,26.1868185 26.661336,26.1868185 C26.3284024,26.1868185 26.1306341,25.7867608 25.6324533,24.5392666 L18.7243856,7.62050121 L18.6567013,7.62050121 C18.0290463,9.34513041 13.6096473,21.2972695 12.1872606,24.4001969 C11.550459,25.7867608 11.3833824,26.1868185 10.9868296,26.1868185 C10.6512536,26.1868185 10.5195436,25.8227164 10.2219766,24.9420107 L3.18423156,3.50482427 Z" id="Fill-7"></path>
                                    </g>
                                    <g id="Group-12" transform="translate(73.096447, 20.045455)" fill="#231F20">
                                        <path d="M3.21528088,3.06421078 C3.71700362,3.06421078 4.49356329,3.14241943 4.49356329,2.4151208 C4.49356329,1.86096859 4.00637121,1.79593412 3.56899852,1.79593412 L2.54977692,1.79593412 L2.54977692,3.06421078 L3.21528088,3.06421078 Z M4.8831924,5.06124987 L4.3671466,5.06124987 L3.34688709,3.40443932 L2.54977692,3.40443932 L2.54977692,5.06124987 L2.11448004,5.06124987 L2.11448004,1.4709709 L3.66407052,1.4709709 C3.96879909,1.4709709 4.26958364,1.49104585 4.53113541,1.64934518 C4.80182074,1.80032551 4.93363453,2.11713329 4.93363453,2.42013953 C4.93363453,3.12778145 4.44125294,3.38833754 3.81145287,3.40443932 L4.8831924,5.06124987 Z M6.08550025,3.26161443 C6.08550025,1.70413306 4.83856254,0.450494379 3.29976626,0.450494379 C1.74436352,0.450494379 0.490160482,1.70413306 0.490160482,3.26161443 C0.490160482,4.82871506 1.74436352,6.09490058 3.29976626,6.09490058 C4.83856254,6.09490058 6.08550025,4.82871506 6.08550025,3.26161443 L6.08550025,3.26161443 Z M0.101154111,3.26161443 C0.101154111,1.49836484 1.53242355,0.0579873236 3.29976626,0.0579873236 C5.05652235,0.0579873236 6.47305355,1.49836484 6.47305355,3.26161443 C6.47305355,5.04263872 5.05652235,6.48259801 3.29976626,6.48259801 C1.53242355,6.48259801 0.101154111,5.04263872 0.101154111,3.26161443 L0.101154111,3.26161443 Z" id="Fill-10"></path>
                                    </g>
                                </g>
                            </g>
                        </g>
                    </g>
                </g>
            </g>
        </g>
    </g>
</svg>